<?xml version="1.0" encoding="utf-8"?>
<!-- Generator: Adobe Illustrator 21.1.0, SVG Export Plug-In . SVG Version: 6.00 Build 0)  -->
<svg version="1.1" id="Layer_1" xmlns="http://www.w3.org/2000/svg" xmlns:xlink="http://www.w3.org/1999/xlink" x="0px" y="0px"
	 viewBox="0 0 32 32" style="enable-background:new 0 0 32 32;" xml:space="preserve">
<g>
	<g>
		<g>
			<path d="M31.2,3.3C30.8,3.1,30.4,3,29.9,3c-0.8,0.1-1.5,0.4-2.2,0.9c-0.6,0.4-1.2,1-1.9,1.6c-0.3,0.3-0.7,0.6-1,0.9
				c-0.2,0.2-0.4,0.4-0.6,0.6c-0.2,0.2-0.4,0.3-0.6,0.2c-0.1,0-0.3-0.1-0.5-0.1l-8.1-3c-0.3-0.1-0.5-0.2-0.8-0.3
				c-0.6-0.2-1,0-1.3,0.2c-0.5,0.3-0.9,0.8-1.1,1.3c-0.3,0.5-0.2,1,0.2,1.4c0.2,0.2,0.3,0.3,0.5,0.4c1.5,1,3,2,4.5,3.1
				c0.6,0.4,1.1,0.7,1.5,1.2c0.1,0.1,0.2,0.2,0.3,0.3l-2.8,2.7c-0.3,0.3-0.6,0.6-0.9,0.9c0,0-0.1,0-0.1,0l-0.5-0.2
				c-0.4-0.2-0.7-0.4-1.1-0.6c-0.5-0.2-1-0.2-1.4,0.2c-0.2,0.2-0.4,0.4-0.6,0.6c-0.4,0.4-0.4,0.9-0.1,1.3c0.1,0.1,0.2,0.2,0.3,0.3
				l0.8,1c1,1.3,1.9,2.5,2.9,3.7c0.1,0.2,0.3,0.3,0.4,0.4c0.2,0.1,0.5,0.3,1,0.2c0.5-0.2,0.9-0.5,1.1-1c0.2-0.4,0.2-0.9,0-1.4
				l-0.1-0.4c-0.1-0.3-0.2-0.7-0.3-1c1.2-0.9,2.3-1.8,3.5-2.7l0.6-0.4l0.1,0.2c0.3,0.5,0.6,1,0.7,1.5l2,5.1c0.1,0.3,0.2,0.6,0.3,0.9
				c0.2,0.5,0.6,0.7,1,0.7c0.2,0,0.3,0,0.5-0.1c0.1,0,0.3-0.1,0.3-0.2c0.7-0.3,1.1-0.8,1.3-1.5c0.1-0.5,0.1-1,0-1.3l-1-7.6
				c-0.1-0.6-0.2-1.3-0.3-1.9c0-0.3,0-0.5,0.3-0.6l0.9-0.8c0.7-0.6,1.4-1.2,2.2-1.8c0.6-0.5,1-1,1.3-1.5c0.3-0.4,0.5-0.9,0.6-1.4
				C31.8,4.2,31.6,3.6,31.2,3.3z M30.8,4.6c-0.1,0.4-0.3,0.8-0.6,1.2c-0.3,0.4-0.6,0.9-1.2,1.3c-0.7,0.6-1.4,1.2-2.2,1.8L26,9.6
				c-0.5,0.3-0.7,0.9-0.6,1.5c0.1,0.6,0.2,1.2,0.3,1.9l1,7.6c0,0.4,0,0.7,0,1c-0.1,0.4-0.4,0.7-0.8,0.9c-0.1,0-0.2,0.1-0.3,0.1
				c-0.3,0.1-0.3,0-0.4-0.2c-0.1-0.3-0.2-0.6-0.3-0.9l-1.9-5.1c-0.2-0.6-0.5-1.1-0.8-1.6l-0.3-0.4l-0.4-0.6l-1.3,1
				c-1.2,0.9-2.4,1.9-3.6,2.8c-0.3,0.2-0.3,0.5-0.2,0.6c0.1,0.4,0.2,0.8,0.3,1.2l0.1,0.4c0.1,0.3,0.1,0.6,0,0.9
				c-0.1,0.3-0.3,0.4-0.6,0.5c0,0-0.1,0-0.2-0.1c-0.1,0-0.2-0.1-0.2-0.2c-1-1.3-1.9-2.5-2.9-3.7l-0.8-1c-0.1-0.1-0.1-0.2-0.2-0.3
				c0,0,0-0.1,0-0.1s0,0,0.1-0.1c0.2-0.2,0.4-0.4,0.6-0.5c0.1-0.1,0.3-0.1,0.5,0c0.4,0.2,0.7,0.3,1.1,0.6l0.5,0.2
				c0.1,0,0.2,0.1,0.3,0.1c0.2,0.1,0.5,0.1,0.7-0.1c0.3-0.3,0.7-0.6,1-1l3-2.8l0.3-0.3l-0.2-0.3c0-0.1-0.1-0.1-0.1-0.2
				c-0.1-0.2-0.2-0.3-0.3-0.5c-0.5-0.6-1-1-1.6-1.4c-1.5-1-3-2-4.5-3.1c-0.1-0.1-0.3-0.2-0.4-0.3c-0.1-0.1-0.1-0.2,0-0.3
				c0.2-0.4,0.6-0.7,1-1c0.1-0.1,0.2-0.1,0.5,0c0.3,0.1,0.6,0.2,0.8,0.3l8.1,3c0.2,0.1,0.4,0.1,0.6,0.2c0.5,0.1,1,0,1.3-0.4
				c0.2-0.2,0.4-0.4,0.6-0.6c0.3-0.3,0.7-0.6,1-0.9c0.7-0.6,1.3-1.1,1.9-1.6C28.8,4.3,29.4,4,30.1,4c0.2,0,0.4,0,0.6,0.1
				C30.8,4.1,30.9,4.4,30.8,4.6z"/>
		</g>
	</g>
	<g>
		<g>
			<path d="M11.8,19.6c-0.1-0.2-0.4-0.2-0.6-0.1L0.4,27.7c-0.2,0.1-0.2,0.4-0.1,0.6c0.1,0.1,0.2,0.2,0.3,0.2c0.1,0,0.2,0,0.3-0.1
				l10.7-8.2C11.9,20.1,11.9,19.8,11.8,19.6z"/>
		</g>
	</g>
	<g>
		<g>
			<path d="M13.2,21.6c-0.2-0.2-0.4-0.2-0.6-0.1l-6.5,5c-0.2,0.1-0.2,0.4-0.1,0.6c0.1,0.1,0.2,0.2,0.3,0.2c0.1,0,0.2,0,0.3-0.1
				l6.6-5C13.3,22.1,13.3,21.8,13.2,21.6z"/>
		</g>
	</g>
	<g>
		<g>
			<path d="M5.5,27.5c-0.1-0.2-0.4-0.2-0.6-0.1l-1.1,0.8c-0.2,0.1-0.2,0.4-0.1,0.6C3.8,29,4,29,4.1,29c0.1,0,0.2,0,0.3-0.1l1.1-0.8
				C5.6,28,5.6,27.7,5.5,27.5z"/>
		</g>
	</g>
	<g>
		<g>
			<path d="M4.1,22.6c-0.1-0.2-0.4-0.2-0.6-0.1l-1.1,0.8c-0.2,0.1-0.2,0.4-0.1,0.6c0.1,0.1,0.2,0.2,0.3,0.2c0.1,0,0.2,0,0.3-0.1
				L4,23.2C4.2,23.1,4.2,22.8,4.1,22.6z"/>
		</g>
	</g>
	<g>
		<g>
			<path d="M10.4,17.9c-0.1-0.2-0.4-0.2-0.6-0.1l-5.1,3.9c-0.2,0.1-0.2,0.4-0.1,0.6c0.1,0.1,0.2,0.2,0.3,0.2c0.1,0,0.2,0,0.3-0.1
				l5.1-3.9C10.4,18.4,10.5,18.1,10.4,17.9z"/>
		</g>
	</g>
</g>
</svg>
